# xmcd
#
# Track frame offsets:
#	150
#	9862
#	21417
#	32037
#	43507
#	69175
#	88767
#	109527
#	122642
#	138862
#
# Disc length: 2038 seconds
#
# Revision: 0
# Processed by: cddbd v1.5.1PL0 Copyright (c) Steve Scherf et al.
# Submitted via: dBpowerAMP V4.0
#
DISCID=7307f40a
DTITLE=Jump 4 Joy - Svenska Vitaminer - Tio Musikaliska Bud Från Mora Till Skärblacka
DYEAR=2004
DGENRE=Blues
TTITLE0=Ringen
TTITLE1=Vitaminer
TTITLE2=Något Stort
TTITLE3=Raka Ryggen
TTITLE4=Maharadjan
TTITLE5=Knäckebröd
TTITLE6=Hallåå
TTITLE7=Svensk Industri
TTITLE8=Logga Ut
TTITLE9=Kyss Någon
EXTD=
EXTT0=
EXTT1=
EXTT2=
EXTT3=
EXTT4=
EXTT5=
EXTT6=
EXTT7=
EXTT8=
EXTT9=
PLAYORDER=
